<mxfile host="app.diagrams.net" modified="2024-07-08T06:26:55.023Z" agent="Mozilla/5.0 (Windows NT 10.0; Win64; x64) AppleWebKit/537.36 (KHTML, like Gecko) Chrome/126.0.0.0 Safari/537.36" version="24.3.1" etag="HLFx6xVCCrDT2Mq65lQ8" type="github">
  <diagram name="페이지-1" id="PNTn0kSw_lQZlSO6LxJ2">
    <mxGraphModel>
      <root>
        <mxCell id="0" />
        <mxCell id="1" parent="0" />
      </root>
    </mxGraphModel>
  </diagram>
</mxfile>
